<svg xmlns="http://www.w3.org/2000/svg" viewBox="0 0 300 400" role="img" aria-labelledby="title desc">
  <title id="title">Story cover placeholder</title>
  <desc id="desc">A dark placeholder cover for stories without an uploaded cover.</desc>
  <defs>
    <linearGradient id="bg" x1="0" y1="0" x2="1" y2="1">
      <stop offset="0" stop-color="#182333"/>
      <stop offset="0.52" stop-color="#24394a"/>
      <stop offset="1" stop-color="#10151f"/>
    </linearGradient>
    <linearGradient id="accent" x1="0" y1="0" x2="1" y2="1">
      <stop offset="0" stop-color="#ef476f"/>
      <stop offset="1" stop-color="#f78c4f"/>
    </linearGradient>
  </defs>
  <rect width="300" height="400" fill="url(#bg)"/>
  <rect x="34" y="42" width="232" height="316" rx="18" fill="none" stroke="rgba(255,255,255,0.22)" stroke-width="3"/>
  <path d="M92 128h94c16 0 29 13 29 29v115c0 3-3 5-6 4-15-6-31-9-47-9H92c-8 0-15-7-15-15V143c0-8 7-15 15-15Z" fill="rgba(255,255,255,0.1)"/>
  <path d="M108 151h67M108 177h82M108 203h56" stroke="rgba(255,255,255,0.38)" stroke-width="9" stroke-linecap="round"/>
  <circle cx="214" cy="118" r="24" fill="url(#accent)"/>
  <text x="150" y="326" text-anchor="middle" fill="rgba(255,255,255,0.72)" font-family="Arial, sans-serif" font-size="20" font-weight="700">HONG TRAN CAC</text>
</svg>
